<svg id="visual" viewBox="0 0 1000 600" width="1000" height="600" xmlns="http://www.w3.org/2000/svg" xmlns:xlink="http://www.w3.org/1999/xlink" version="1.1"><path d="M0 145L15.2 132C30.3 119 60.7 93 91 93C121.3 93 151.7 119 182 132C212.3 145 242.7 145 273 140C303.3 135 333.7 125 364 116C394.3 107 424.7 99 454.8 94C485 89 515 87 545.2 93C575.3 99 605.7 113 636 112C666.3 111 696.7 95 727 88C757.3 81 787.7 83 818 97C848.3 111 878.7 137 909 148C939.3 159 969.7 155 984.8 153L1000 151L1000 0L984.8 0C969.7 0 939.3 0 909 0C878.7 0 848.3 0 818 0C787.7 0 757.3 0 727 0C696.7 0 666.3 0 636 0C605.7 0 575.3 0 545.2 0C515 0 485 0 454.8 0C424.7 0 394.3 0 364 0C333.7 0 303.3 0 273 0C242.7 0 212.3 0 182 0C151.7 0 121.3 0 91 0C60.7 0 30.3 0 15.2 0L0 0Z" fill="#346241"></path><path d="M0 247L15.2 248C30.3 249 60.7 251 91 256C121.3 261 151.7 269 182 282C212.3 295 242.7 313 273 305C303.3 297 333.7 263 364 258C394.3 253 424.7 277 454.8 271C485 265 515 229 545.2 237C575.3 245 605.7 297 636 313C666.3 329 696.7 309 727 301C757.3 293 787.7 297 818 293C848.3 289 878.7 277 909 281C939.3 285 969.7 305 984.8 315L1000 325L1000 149L984.8 151C969.7 153 939.3 157 909 146C878.7 135 848.3 109 818 95C787.7 81 757.3 79 727 86C696.7 93 666.3 109 636 110C605.7 111 575.3 97 545.2 91C515 85 485 87 454.8 92C424.7 97 394.3 105 364 114C333.7 123 303.3 133 273 138C242.7 143 212.3 143 182 130C151.7 117 121.3 91 91 91C60.7 91 30.3 117 15.2 130L0 143Z" fill="#29543c"></path><path d="M0 313L15.2 317C30.3 321 60.7 329 91 334C121.3 339 151.7 341 182 353C212.3 365 242.7 387 273 382C303.3 377 333.7 345 364 342C394.3 339 424.7 365 454.8 360C485 355 515 319 545.2 322C575.3 325 605.7 367 636 382C666.3 397 696.7 385 727 375C757.3 365 787.7 357 818 346C848.3 335 878.7 321 909 330C939.3 339 969.7 371 984.8 387L1000 403L1000 323L984.8 313C969.7 303 939.3 283 909 279C878.7 275 848.3 287 818 291C787.7 295 757.3 291 727 299C696.7 307 666.3 327 636 311C605.7 295 575.3 243 545.2 235C515 227 485 263 454.8 269C424.7 275 394.3 251 364 256C333.7 261 303.3 295 273 303C242.7 311 212.3 293 182 280C151.7 267 121.3 259 91 254C60.7 249 30.3 247 15.2 246L0 245Z" fill="#204636"></path><path d="M0 499L15.2 506C30.3 513 60.7 527 91 532C121.3 537 151.7 533 182 534C212.3 535 242.7 541 273 534C303.3 527 333.7 507 364 508C394.3 509 424.7 531 454.8 533C485 535 515 517 545.2 514C575.3 511 605.7 523 636 522C666.3 521 696.7 507 727 498C757.3 489 787.7 485 818 494C848.3 503 878.7 525 909 537C939.3 549 969.7 551 984.8 552L1000 553L1000 401L984.8 385C969.7 369 939.3 337 909 328C878.7 319 848.3 333 818 344C787.7 355 757.3 363 727 373C696.7 383 666.3 395 636 380C605.7 365 575.3 323 545.2 320C515 317 485 353 454.8 358C424.7 363 394.3 337 364 340C333.7 343 303.3 375 273 380C242.7 385 212.3 363 182 351C151.7 339 121.3 337 91 332C60.7 327 30.3 319 15.2 315L0 311Z" fill="#1a382f"></path><path d="M0 601L15.2 601C30.3 601 60.7 601 91 601C121.3 601 151.7 601 182 601C212.3 601 242.7 601 273 601C303.3 601 333.7 601 364 601C394.3 601 424.7 601 454.8 601C485 601 515 601 545.2 601C575.3 601 605.7 601 636 601C666.3 601 696.7 601 727 601C757.3 601 787.7 601 818 601C848.3 601 878.7 601 909 601C939.3 601 969.7 601 984.8 601L1000 601L1000 551L984.8 550C969.7 549 939.3 547 909 535C878.7 523 848.3 501 818 492C787.7 483 757.3 487 727 496C696.7 505 666.3 519 636 520C605.7 521 575.3 509 545.2 512C515 515 485 533 454.8 531C424.7 529 394.3 507 364 506C333.7 505 303.3 525 273 532C242.7 539 212.3 533 182 532C151.7 531 121.3 535 91 530C60.7 525 30.3 511 15.2 504L0 497Z" fill="#162b26"></path></svg>